<svg id="cloudy" data-name="cloudy" xmlns="http://www.w3.org/2000/svg" viewBox="0 0 188.6 134.8"><title>cloudy</title><path d="M146.87,134.8h-.32L30,134.28l-.57-.14A39,39,0,0,1,0,96.55C0,75.78,16.7,58.79,37.54,58A60,60,0,0,1,155.17,43.5,46.3,46.3,0,0,1,188.6,88.39a47,47,0,0,1-41.41,46.37ZM31.21,124.28l115.06.51A37,37,0,0,0,178.6,88.39,36.36,36.36,0,0,0,150,52.5l-3.09-.68-.71-3.08A50,50,0,0,0,47.5,60.1c0,.76,0,1.55.09,2.39l.34,6.25-5.84-.61a28.64,28.64,0,0,0-3-.16C23,68,10,80.78,10,96.55A29.33,29.33,0,0,0,31.21,124.28Z" fill="#fff"/></svg>
