<svg id="partly_sunny" data-name="partly_sunny" xmlns="http://www.w3.org/2000/svg" viewBox="0 0 215.21 164.23"><title>partly sunny</title><path d="M181.83,72.85a60,60,0,0,0-74.19-41.17l-.9.26-1.95.34c-6.36,1.12-10.9.34-13.1-2.29-2-2.37-2.51-6.64-1.51-12.33L91.85,8.2l-7.37,6.18c-3.86,3.24-7.41,5-10.26,5-3.95,0-7.21-3.47-9.7-10.31L61.23,0,57.94,9c-2.49,6.84-5.75,10.31-9.7,10.31-2.85,0-6.4-1.71-10.26-5L30.62,8.2l1.67,9.47c1,5.69.48,10-1.51,12.33-2.2,2.62-6.75,3.41-13.1,2.29L8.2,30.62,14.38,38c2.75,3.27,5.8,8,4.74,12S13,56.53,9,58L0,61.23l9,3.29c4,1.46,9,4,10.09,8s-2,8.69-4.74,12L8.2,91.85l9.47-1.67c6.36-1.12,10.9-.34,13.1,2.29,2,2.37,2.51,6.64,1.51,12.33l-.3,1.68a38,38,0,0,0-5.33,19.44A39,39,0,0,0,56,163.51l.57.16,116.59.56h.32l.31-.08a47,47,0,0,0,41.42-46.41A46.3,46.3,0,0,0,181.83,72.85ZM24,82.71c2.22-4.25,2.84-8.27,1.84-12s-3.55-6.9-7.6-9.47c4.05-2.58,6.6-5.74,7.6-9.47s.38-7.74-1.84-12c5.29-.23,9.36-2,12.1-5.26A17,17,0,0,0,39.76,24a18.41,18.41,0,0,0,8.48,2.31h0c3.85,0,8.85-1.57,13-8.07,4.14,6.5,9.14,8.07,13,8.07A18.4,18.4,0,0,0,82.71,24a17,17,0,0,0,3.62,10.5,13.85,13.85,0,0,0,5.95,4.09A60.13,60.13,0,0,0,64.2,87.34a39.17,39.17,0,0,0-24.53,9.85A16.36,16.36,0,0,0,36.14,88C33.4,84.7,29.33,82.93,24,82.71Zm148.89,71.44-115.06-.51A29.33,29.33,0,0,1,36.66,125.9,29,29,0,0,1,68.74,97.47l5.84.61-.34-6.22c0-.85-.09-1.65-.09-2.42a50,50,0,0,1,98.7-11.35l.71,3.08,3.09.68a36.36,36.36,0,0,1,28.6,35.89,36.94,36.94,0,0,1-32.32,36.41Z" fill="#fff"/></svg>
