<?xml version="1.0" encoding="utf-8"?>
<svg version="1.1" id="Layer_1" xmlns="http://www.w3.org/2000/svg" xmlns:xlink="http://www.w3.org/1999/xlink" x="0px" y="0px"
	 width="253.092px" height="189.237px" viewBox="0 0 253.092 189.237" enable-background="new 0 0 253.092 189.237"
	 xml:space="preserve">
<path fill="#FFFFFF" d="M224.056,112.192c1.719-6.415,9.719-10.542,16.128-12.875l12.908-4.698l-12.908-4.698
	c-6.409-2.333-14.409-6.46-16.128-12.875c-1.719-6.415,3.146-13.988,7.53-19.213l8.831-10.523l-13.529,2.385
	c-2.977,0.524-5.739,0.791-8.21,0.791c-5.967,0-10.274-1.529-12.806-4.544c-3.219-3.836-4.074-10.661-2.475-19.736l2.386-13.529
	l-10.523,8.831c-6.151,5.162-11.825,7.891-16.408,7.891c-6.422,0-11.697-5.548-15.68-16.488L158.474,0l-4.698,12.909
	c-3.982,10.941-9.258,16.488-15.68,16.488c-4.583,0-10.257-2.729-16.408-7.891l-10.522-8.831l2.385,13.529
	c1.084,6.152,1.037,11.267-0.106,15.12c-8.009-4.84-17.373-7.585-27.321-7.585c-28.652,0-52.051,22.953-52.82,51.453
	C14.853,85.686,0,100.665,0,118.996c0,15.442,10.829,29.311,25.748,32.951l0.458,0.145l88.044,0.449
	c0.224,3.032-0.006,6.55-0.701,10.492l-2.385,13.529l10.522-8.831c6.151-5.162,11.825-7.891,16.408-7.891
	c6.422,0,11.697,5.548,15.68,16.488l4.698,12.908l4.698-12.908c3.982-10.94,9.258-16.488,15.68-16.488
	c4.583,0,10.257,2.729,16.408,7.891l10.523,8.831l-2.386-13.529c-1.6-9.076-0.744-15.901,2.474-19.737
	c2.53-3.015,6.839-4.544,12.807-4.544c2.471,0,5.233,0.267,8.21,0.791l13.529,2.386l-8.831-10.523
	C227.202,126.18,222.337,118.607,224.056,112.192z M27.205,144.03C16.225,141.125,8,130.438,8,118.979
	c0-14.23,11.773-25.808,26.244-25.808c0.893,0,1.786,0.048,2.729,0.146l4.665,0.487l-0.274-5.028
	c-0.04-0.711-0.082-1.426-0.082-2.146c0-24.755,20.115-44.895,44.84-44.895c8.259,0,16.046,2.228,22.743,6.173
	c-2.561,1.71-6.108,2.576-10.596,2.576c-2.471,0-5.233-0.266-8.21-0.791L76.53,47.31l8.831,10.523
	c4.384,5.225,9.249,12.798,7.53,19.213c-1.719,6.415-9.719,10.542-16.128,12.875l-12.909,4.698l12.909,4.698
	c6.409,2.333,14.409,6.46,16.128,12.875s-3.146,13.988-7.53,19.213l-8.831,10.523l13.529-2.386c2.977-0.524,5.739-0.791,8.21-0.791
	c5.967,0,10.274,1.529,12.806,4.545c0.289,0.344,0.552,0.721,0.802,1.112L27.205,144.03z M214.396,109.604
	c-1.587,5.924-0.504,12.341,3.219,19.16c-8.539,0.207-15.063,2.931-19.404,8.104c-3.552,4.232-5.419,9.893-5.589,16.902
	c-4.793-2.612-9.4-3.93-13.771-3.93c-6.038,0-13.915,2.521-20.378,13.091c-6.463-10.569-14.34-13.091-20.378-13.091
	c-4.37,0-8.977,1.317-13.771,3.93c-0.171-7.008-2.039-12.669-5.59-16.901c-4.342-5.174-10.865-7.897-19.403-8.104
	c3.723-6.819,4.806-13.236,3.219-19.16s-5.733-10.94-12.368-14.985c6.635-4.045,10.781-9.061,12.368-14.985
	c1.587-5.924,0.504-12.341-3.219-19.161c8.539-0.207,15.063-2.93,19.404-8.103c3.552-4.232,5.419-9.893,5.589-16.902
	c4.793,2.612,9.4,3.929,13.771,3.93c0,0,0,0,0.001,0c6.038,0,13.915-2.522,20.377-13.09c6.463,10.569,14.34,13.09,20.378,13.09
	c4.37,0,8.977-1.317,13.771-3.93c0.17,7.009,2.037,12.67,5.589,16.902c4.341,5.173,10.865,7.897,19.403,8.104
	c-3.723,6.82-4.806,13.237-3.219,19.161c1.587,5.924,5.734,10.94,12.368,14.985C220.131,98.664,215.983,103.68,214.396,109.604z"/>
</svg>
