<?xml version="1.0" encoding="utf-8"?>
<svg version="1.1" id="Layer_1" xmlns="http://www.w3.org/2000/svg" xmlns:xlink="http://www.w3.org/1999/xlink" x="0px" y="0px"
	 width="215.256px" height="164.232px" viewBox="0 0 215.256 164.232" enable-background="new 0 0 215.256 164.232"
	 xml:space="preserve">
<path fill="#FFFFFF" d="M181.83,72.853c-7.343-25.766-30.619-43.501-57.634-43.501c-6.068,0-11.93,0.907-17.455,2.591l-1.947,0.343
	c-6.358,1.122-10.902,0.338-13.104-2.287c-1.991-2.373-2.513-6.635-1.509-12.326l1.67-9.471l-7.367,6.182
	c-3.864,3.243-7.412,4.957-10.259,4.957c-3.949,0-7.213-3.467-9.702-10.306L61.233,0l-3.289,9.035
	c-2.489,6.839-5.753,10.306-9.702,10.306c-2.847,0-6.395-1.714-10.259-4.957l-7.367-6.182l1.67,9.471
	c1.003,5.692,0.482,9.955-1.509,12.327c-2.203,2.624-6.747,3.406-13.105,2.286l-9.471-1.67l6.182,7.367
	c2.748,3.273,5.799,8.006,4.739,11.966c-1.061,3.96-6.071,6.534-10.087,7.995L0,61.232l9.036,3.289
	c4.016,1.461,9.026,4.035,10.087,7.995c1.061,3.959-1.991,8.692-4.739,11.966l-6.182,7.366l9.471-1.669
	c6.358-1.122,10.902-0.339,13.104,2.286c1.991,2.373,2.513,6.636,1.509,12.327l-0.295,1.676c-3.387,5.713-5.333,12.355-5.333,19.438
	c0,17.626,12.36,33.445,29.39,37.601l0.573,0.16l116.59,0.564h0.316l0.313-0.08c23.611-2.892,41.416-22.869,41.416-46.414
	C215.256,96.618,201.664,78.586,181.83,72.853z M24.042,82.705c2.221-4.255,2.841-8.272,1.842-12
	c-0.999-3.728-3.545-6.898-7.596-9.473c4.051-2.575,6.597-5.745,7.596-9.473c0.999-3.727,0.378-7.745-1.842-12
	c5.291-0.227,9.357-1.994,12.098-5.261c2.225-2.651,3.434-6.155,3.619-10.464c2.944,1.533,5.781,2.306,8.483,2.306c0,0,0,0,0.001,0
	c3.852,0,8.849-1.566,12.99-8.066c4.142,6.5,9.139,8.066,12.991,8.066c2.702,0,5.54-0.773,8.483-2.306
	c0.186,4.309,1.395,7.813,3.619,10.464c1.557,1.855,3.556,3.209,5.949,4.09c-16.316,10.299-27.368,28.23-28.078,48.754
	c-9.408,0.362-17.966,4.032-24.531,9.853c-0.348-3.744-1.521-6.837-3.527-9.229C33.397,84.699,29.332,82.933,24.042,82.705z
	 M172.929,154.146l-115.058-0.515c-12.133-3.241-21.214-15.061-21.214-27.735c0-15.764,13.046-28.588,29.08-28.588
	c0.996,0,1.984,0.053,3.021,0.162l5.838,0.614l-0.342-6.218c-0.048-0.851-0.093-1.655-0.093-2.422
	c0-27.623,22.445-50.096,50.034-50.096c23.367,0,43.378,15.933,48.663,38.746l0.714,3.08l3.087,0.676
	c16.838,3.688,28.597,18.445,28.597,35.886C205.256,136.137,191.381,151.735,172.929,154.146z"/>
</svg>
