<svg id="partly_cloudy" data-name="partly_cloudy" xmlns="http://www.w3.org/2000/svg" viewBox="0 0 253.16 189.25"><title>partly cloudy</title><path d="M224.06,112.19c1.72-6.42,9.72-10.54,16.13-12.87l12.91-4.7-12.91-4.7c-6.41-2.33-14.41-6.46-16.13-12.87s3.15-14,7.53-19.21l8.83-10.52L226.89,49.7a47.9,47.9,0,0,1-8.21.79c-6,0-10.27-1.53-12.81-4.54-3.22-3.84-4.07-10.66-2.48-19.74l2.39-13.53-10.52,8.83c-6.15,5.16-11.82,7.89-16.41,7.89-6.42,0-11.7-5.55-15.68-16.49L158.47,0l-4.7,12.91c-4,10.94-9.26,16.49-15.68,16.49-4.58,0-10.26-2.73-16.41-7.89l-10.52-8.83,2.39,13.53c1.08,6.15,1,11.27-.11,15.12A52.87,52.87,0,0,0,33.3,85.19,33.87,33.87,0,0,0,25.74,152l.46.15,88,.45a43,43,0,0,1-.7,10.49l-2.39,13.53,10.52-8.83c6.15-5.16,11.82-7.89,16.41-7.89,6.42,0,11.7,5.55,15.68,16.49l4.7,12.91,4.7-12.91c4-10.94,9.26-16.49,15.68-16.49,4.58,0,10.26,2.73,16.41,7.89l10.52,8.83L203.4,163c-1.6-9.08-.74-15.9,2.47-19.74,2.53-3,6.84-4.54,12.81-4.54a47.9,47.9,0,0,1,8.21.79l13.53,2.39-8.83-10.52C227.2,126.18,222.34,118.61,224.06,112.19ZM27.2,144a25.85,25.85,0,0,1,7.39-50.83q1.21,0,2.41.15l4.67.49-.27-5c0-.71-.08-1.43-.08-2.15A44.87,44.87,0,0,1,108.9,47.94c-2.56,1.71-6.11,2.58-10.6,2.58a47.8,47.8,0,0,1-8.21-.79L76.53,47.31l8.83,10.52c4.38,5.22,9.25,12.8,7.53,19.21S83.17,87.59,76.76,89.92l-12.91,4.7,12.91,4.7c6.41,2.33,14.41,6.46,16.13,12.87s-3.15,14-7.53,19.21l-8.83,10.52,13.53-2.39a47.9,47.9,0,0,1,8.21-.79c6,0,10.27,1.53,12.81,4.54a10.61,10.61,0,0,1,.8,1.11Zm187.2-34.4c-1.59,5.92-.5,12.34,3.22,19.16-8.54.21-15.06,2.93-19.4,8.1-3.55,4.23-5.42,9.89-5.59,16.9a28.89,28.89,0,0,0-13.77-3.93c-6,0-13.91,2.52-20.38,13.09-6.46-10.57-14.34-13.09-20.38-13.09a28.88,28.88,0,0,0-13.77,3.93c-.17-7-2-12.67-5.59-16.9-4.34-5.17-10.86-7.9-19.4-8.1,3.72-6.82,4.81-13.24,3.22-19.16s-5.73-10.94-12.37-15c6.64-4,10.78-9.06,12.37-15s.5-12.34-3.22-19.16c8.54-.21,15.06-2.93,19.4-8.1,3.55-4.23,5.42-9.89,5.59-16.9a28.9,28.9,0,0,0,13.77,3.93h0c6,0,13.91-2.52,20.38-13.09,6.46,10.57,14.34,13.09,20.38,13.09a28.88,28.88,0,0,0,13.77-3.93c.17,7,2,12.67,5.59,16.9,4.34,5.17,10.87,7.9,19.4,8.1-3.72,6.82-4.81,13.24-3.22,19.16s5.73,10.94,12.37,15C220.13,98.66,216,103.68,214.4,109.6Z" transform="translate(0.06)" fill="#fff"/></svg>
