<?xml version="1.0" encoding="utf-8"?>
<svg version="1.1" id="Layer_1" xmlns="http://www.w3.org/2000/svg" xmlns:xlink="http://www.w3.org/1999/xlink" x="0px" y="0px"
	 width="190.912px" height="252.883px" viewBox="0 0 190.912 252.883" enable-background="new 0 0 190.912 252.883"
	 xml:space="preserve">
<g>
	<path stroke="#FFFFFF" stroke-width="10" stroke-miterlimit="10" d="M32.889,129.28
		c-14-3.416-25.575-16.769-25.575-32.732c0-18.55,15.53-33.587,34.08-33.587c1.202,0,2.374,0.066,3.543,0.189
		c-0.055-1.011-0.12-2.028-0.12-3.053C44.817,29.668,69.422,5,99.852,5c26.135,0,47.878,18.204,53.534,42.618
		c18.744,4.106,32.526,20.795,32.526,40.771c0,21.285-16.023,38.838-37.023,41.41L32.889,129.28z"/>
	<g>
		<polygon fill="#FFFFFF" points="10,228.883 0,228.883 41.777,142.883 51.777,142.883 		"/>
		<polygon fill="#FFFFFF" points="28,252.883 18,252.883 71.777,142.883 81.777,142.883 		"/>
		<polygon fill="#FFFFFF" points="63,240.883 53,240.883 100.777,142.883 110.777,142.883 		"/>
		<polygon fill="#FFFFFF" points="84,252.883 74,252.883 127.777,142.883 137.777,142.883 		"/>
	</g>
</g>
</svg>
