<svg id="rainy" data-name="rainy" xmlns="http://www.w3.org/2000/svg" viewBox="0 0 190.92 252.84"><title>rainy</title><path d="M149.18,134.8h-.32l-116.59-.52-.57-.14A39,39,0,0,1,2.31,96.55C2.31,75.78,19,58.79,39.85,58A60,60,0,0,1,157.49,43.5a46.3,46.3,0,0,1,33.43,44.89,47,47,0,0,1-41.42,46.37ZM33.53,124.28l115.06.51a36.94,36.94,0,0,0,32.33-36.41,36.36,36.36,0,0,0-28.6-35.89l-3.09-.68-.71-3.08A50,50,0,0,0,49.82,60.1a21.94,21.94,0,0,0,.09,2.39l.34,6.25-5.84-.61a28.51,28.51,0,0,0-3-.16c-16,0-29.08,12.82-29.08,28.59A29.33,29.33,0,0,0,33.53,124.28Z" transform="translate(0 -0.04)" fill="#fff"/><polygon points="10 228.84 0 228.84 41.78 142.84 51.78 142.84 10 228.84" fill="#fff"/><polygon points="28 252.84 18 252.84 71.78 142.84 81.78 142.84 28 252.84" fill="#fff"/><polygon points="63 240.84 53 240.84 100.78 142.84 110.78 142.84 63 240.84" fill="#fff"/><polygon points="84 252.84 74 252.84 127.78 142.84 137.78 142.84 84 252.84" fill="#fff"/></svg>
