<svg id="snowy" data-name="snowy" xmlns="http://www.w3.org/2000/svg" viewBox="0 0 191 253.72"><title>snowy</title><path d="M149.29,134.8H149l-116.59-.52-.57-.14A39,39,0,0,1,2.42,96.55C2.42,75.78,19.13,58.79,40,58A60,60,0,0,1,157.6,43.5,46.3,46.3,0,0,1,191,88.39a47,47,0,0,1-41.42,46.37ZM33.64,124.28l115.06.51A36.94,36.94,0,0,0,181,88.39,36.36,36.36,0,0,0,152.4,52.5l-3.09-.68-.71-3.08A50,50,0,0,0,49.93,60.1,22.94,22.94,0,0,0,50,62.54l.34,6.2-5.84-.61a28.56,28.56,0,0,0-3-.16c-16,0-29.08,12.82-29.08,28.59A29.33,29.33,0,0,0,33.64,124.28Z" transform="translate(0 -0.16)" fill="#fff"/><circle cx="45" cy="148.72" r="5" fill="#fff"/><circle cx="35" cy="168.72" r="5" fill="#fff"/><circle cx="25" cy="188.72" r="5" fill="#fff"/><circle cx="15" cy="208.72" r="5" fill="#fff"/><circle cx="5" cy="228.72" r="5" fill="#fff"/><circle cx="104" cy="148.72" r="5" fill="#fff"/><circle cx="94" cy="168.72" r="5" fill="#fff"/><circle cx="84" cy="188.72" r="5" fill="#fff"/><circle cx="74" cy="208.72" r="5" fill="#fff"/><circle cx="64" cy="228.72" r="5" fill="#fff"/><circle cx="75" cy="148.72" r="5" fill="#fff"/><circle cx="65" cy="168.72" r="5" fill="#fff"/><circle cx="55" cy="188.72" r="5" fill="#fff"/><circle cx="45" cy="208.72" r="5" fill="#fff"/><circle cx="35" cy="228.72" r="5" fill="#fff"/><circle cx="25" cy="248.72" r="5" fill="#fff"/><circle cx="131" cy="148.72" r="5" fill="#fff"/><circle cx="121" cy="168.72" r="5" fill="#fff"/><circle cx="111" cy="188.72" r="5" fill="#fff"/><circle cx="101" cy="208.72" r="5" fill="#fff"/><circle cx="91" cy="228.72" r="5" fill="#fff"/><circle cx="81" cy="248.72" r="5" fill="#fff"/></svg>
