<svg id="stormy" data-name="stormy" xmlns="http://www.w3.org/2000/svg" viewBox="0 0 188.6 238.81"><title>stormy</title><path d="M146.87,134.8h-.32L30,134.28l-.57-.14A39,39,0,0,1,0,96.55C0,75.78,16.7,58.79,37.54,58A60,60,0,0,1,155.17,43.5,46.31,46.31,0,0,1,188.6,88.39a47,47,0,0,1-41.41,46.37ZM31.21,124.28l115.06.51a37,37,0,0,0,32.33-36.4A36.36,36.36,0,0,0,150,52.5l-3.09-.68-.71-3.08A50,50,0,0,0,47.5,60.1a21.94,21.94,0,0,0,.09,2.39l.34,6.25-5.84-.61a28.51,28.51,0,0,0-3-.16C23,68,10,80.78,10,96.55A29.33,29.33,0,0,0,31.21,124.28Z" transform="translate(0 -0.07)" fill="#fff"/><polygon points="59.92 142.81 49.92 142.81 27.57 188.81 37.13 188.81 24.36 214.81 53.58 174.81 44.38 174.81 59.92 142.81" fill="#fff"/><polygon points="97.06 142.81 87.06 142.81 64.58 188.81 73.99 188.81 49.43 238.81 90.58 174.81 81.42 174.81 97.06 142.81" fill="#fff"/><polygon points="133.79 142.81 123.79 142.81 101.36 188.81 111.05 188.81 92.4 226.81 127.58 174.81 118.19 174.81 133.79 142.81" fill="#fff"/></svg>
