<?xml version="1.0" encoding="utf-8"?>
<svg version="1.1" id="Layer_1" xmlns="http://www.w3.org/2000/svg" xmlns:xlink="http://www.w3.org/1999/xlink" x="0px" y="0px"
	 width="188.599px" height="238.883px" viewBox="0 0 188.599 238.883" enable-background="new 0 0 188.599 238.883"
	 xml:space="preserve">
<g>
	<path stroke="#FFFFFF" stroke-width="10" stroke-miterlimit="10" d="M30.575,129.28
		C16.575,125.864,5,112.511,5,96.547c0-18.55,15.53-33.588,34.08-33.588c1.202,0,2.374,0.066,3.543,0.189
		c-0.055-1.011-0.12-2.027-0.12-3.053C42.504,29.668,67.109,5,97.538,5c26.135,0,47.878,18.204,53.534,42.618
		c18.744,4.105,32.526,20.795,32.526,40.771c0,21.285-16.023,38.838-37.023,41.41L30.575,129.28z"/>
	<polyline fill="#FFFFFF" points="53.575,174.883 44.006,174.883 24.359,214.883 	"/>
	<polygon fill="#FFFFFF" points="59.921,142.883 49.921,142.883 27.575,188.883 37.575,188.883 	"/>
	<polygon fill="#FFFFFF" points="97.063,142.883 87.064,142.883 64.575,188.883 74.575,188.883 	"/>
	<polyline fill="#FFFFFF" points="90.575,174.883 80.864,174.883 49.431,238.883 	"/>
	<polygon fill="#FFFFFF" points="133.788,142.883 123.788,142.883 101.362,188.883 111.362,188.883 	"/>
	<polyline fill="#FFFFFF" points="127.575,174.883 117.927,174.883 92.399,226.883 	"/>
</g>
</svg>
