<?xml version="1.0" encoding="utf-8"?>
<svg version="1.1" id="Layer_1" xmlns="http://www.w3.org/2000/svg" xmlns:xlink="http://www.w3.org/1999/xlink" x="0px" y="0px"
	 width="189.236px" height="189.236px" viewBox="0 0 189.236 189.236" enable-background="new 0 0 189.236 189.236"
	 xml:space="preserve">
<path stroke="#FFFFFF" stroke-width="10" stroke-miterlimit="10" d="M94.618,14.618
	c8.005,21.992,22.072,25.762,40,10.718c-4.063,23.048,6.234,33.346,29.282,29.282c-15.044,17.928-11.274,31.995,10.718,40
	c-21.992,8.005-25.762,22.072-10.718,40c-23.048-4.063-33.346,6.234-29.282,29.282c-17.928-15.044-31.995-11.274-40,10.718
	c-8.005-21.992-22.072-25.762-40-10.718c4.063-23.048-6.234-33.346-29.282-29.282c15.044-17.928,11.274-31.995-10.718-40
	c21.992-8.005,25.762-22.072,10.718-40c23.048,4.063,33.346-6.234,29.282-29.282C72.546,40.38,86.613,36.61,94.618,14.618z"/>
</svg>
