<svg id="sunny" data-name="sunny" xmlns="http://www.w3.org/2000/svg" viewBox="0 0 189.24 189.24"><title>sunny</title><path d="M94.62,189.24l-4.7-12.91c-2.33-6.41-6.46-14.41-12.88-16.13s-14,3.15-19.21,7.53l-10.52,8.83L49.69,163c1.18-6.72,1.61-15.71-3.09-20.41s-13.69-4.27-20.4-3.08l-13.53,2.39,8.83-10.52c4.38-5.22,9.25-12.8,7.53-19.21s-9.72-10.54-16.13-12.88L0,94.62l12.91-4.7C19.32,87.59,27.32,83.46,29,77s-3.15-14-7.53-19.21L12.67,47.31,26.2,49.69c6.72,1.18,15.71,1.61,20.4-3.09s4.27-13.69,3.09-20.4L47.31,12.67l10.52,8.83C63.06,25.89,70.63,30.75,77,29s10.54-9.72,12.88-16.13L94.62,0l4.7,12.91c2.33,6.41,6.46,14.41,12.88,16.13s14-3.15,19.21-7.53l10.52-8.83L139.54,26.2c-1.18,6.72-1.61,15.71,3.09,20.4s13.69,4.27,20.4,3.09l13.53-2.39-8.83,10.52c-4.38,5.22-9.25,12.8-7.53,19.21s9.72,10.54,16.13,12.88l12.91,4.7-12.91,4.7c-6.41,2.33-14.41,6.46-16.13,12.88s3.15,14,7.53,19.21l8.83,10.52L163,139.54c-6.72-1.18-15.71-1.61-20.41,3.09s-4.27,13.69-3.08,20.4l2.39,13.53-10.52-8.83c-5.22-4.38-12.8-9.25-19.21-7.53s-10.54,9.72-12.88,16.13Zm-20.4-39.4a20.84,20.84,0,0,1,5.42.71c5.92,1.59,10.94,5.73,15,12.37,4-6.63,9.06-10.78,15-12.37s12.34-.5,19.16,3.22c.19-7.77,2.46-13.87,6.79-18.2s10.44-6.61,18.2-6.79c-3.72-6.82-4.81-13.24-3.22-19.16s5.73-10.94,12.37-15c-6.63-4-10.78-9.06-12.37-15s-.5-12.34,3.22-19.16c-7.77-.19-13.87-2.46-18.2-6.79s-6.61-10.44-6.79-18.2c-6.82,3.72-13.24,4.81-19.16,3.22S98.66,33,94.62,26.33c-4,6.64-9.06,10.78-15,12.37s-12.34.5-19.16-3.22c-.19,7.77-2.46,13.87-6.79,18.2s-10.44,6.61-18.2,6.79c3.72,6.82,4.81,13.24,3.22,19.16S33,90.57,26.33,94.62c6.63,4,10.78,9.06,12.37,15s.5,12.34-3.22,19.16c7.77.18,13.86,2.46,18.2,6.79s6.61,10.44,6.79,18.2A28.77,28.77,0,0,1,74.21,149.83Z" fill="#fff"/></svg>
